<svg version="1.2" xmlns="http://www.w3.org/2000/svg" viewBox="0 0 520 481" width="520" height="481">
	<title>netable</title>
	<style>
		.s0 { fill: #000000 } 
	</style>
	<g>
		<path class="s0" d="m31 84v60h8.5 8.5l0.2-42.1 0.3-42.1 9.4 34.9c5.2 19.1 10.3 38.1 11.4 42l1.9 7.3h9.9 9.9l-0.2-59.8-0.3-59.7-8.2-0.3-8.3-0.3-0.1 35.3v35.3l-8-29.5c-4.4-16.2-8.8-32-9.7-35l-1.7-5.5-11.7-0.3-11.8-0.3z"/>
		<path class="s0" d="m104 84v60h25.5 25.5v-8.5-8.5h-16-16v-17.5-17.5h13 13v-8.5-8.5h-13-13v-16.5-16.5h16 16v-9-9h-25.5-25.5z"/>
		<path class="s0" d="m188.7 24.7c-0.4 0.3-0.7 4.4-0.7 9v8.3h10 10v51 51h9.5 9.5v-51-51h9.5 9.5v-9-9h-28.3c-15.6 0-28.7 0.3-29 0.7z"/>
		<path class="s0" d="m268.6 26.7c-0.8 3.8-18.6 115.2-18.6 116.4 0 0.6 3.7 0.9 8.8 0.7l8.7-0.3 1.4-10.3 1.4-10.3 11.6 0.3 11.6 0.3 1.4 10.2 1.4 10.3h9.7c8.8 0 9.8-0.2 9.4-1.8-0.2-0.9-4.4-27.4-9.4-58.7-5-31.4-9.2-57.6-9.5-58.3-0.3-0.9-4-1.2-13.9-1.2h-13.4zm17.8 51.2l4.2 28.1h-8.9-8.9l0.5-2.8c0.3-1.5 2.2-14.3 4.3-28.4 2.1-14.2 4-25.6 4.2-25.3 0.2 0.2 2.3 13 4.6 28.4z"/>
		<path class="s0" d="m324 83.9v60.1h17.8c20.2 0 26-1.1 31.8-6.2 6.5-5.7 7.8-9.6 8.2-24.5 0.3-10 0-14.4-1.2-18.7-1.7-5.9-6.3-12.1-9.8-13.2-2-0.6-1.9-0.8 1.1-3.1 1.7-1.4 4.2-4.4 5.4-6.6 2-3.8 2.2-5.7 2.2-17.8 0-13.3-0.1-13.6-3-18.5-2.3-3.8-4.3-5.6-8.9-7.8-5.7-2.9-6.3-3-24.7-3.4l-18.9-0.5zm34.1-40c2.2 1.8 2.4 2.8 2.7 12.4 0.4 9.8 0.2 10.5-2.1 13.2-2.1 2.5-3.3 2.9-9.1 3.3l-6.6 0.4v-15.6-15.6h6.4c4.8 0 7 0.5 8.7 1.9zm0.6 48.6c3.5 2.4 4.3 5.5 4.3 17.5 0 10-0.2 11.1-2.4 13.7-2.1 2.5-3.1 2.8-10 3.1l-7.6 0.4v-18.7-18.8l6.6 0.6c3.7 0.4 7.8 1.4 9.1 2.2z"/>
		<path class="s0" d="m393.7 24.7c-0.4 0.3-0.7 27.3-0.7 60v59.3h25 25v-8.5-8.5h-15.5-15.5v-51.5-51.5h-8.8c-4.9 0-9.2 0.3-9.5 0.7z"/>
		<path class="s0" d="m451.7 24.6c-0.4 0.4-0.7 27.4-0.7 60.1v59.3h26 26v-8.5-8.5h-16-16v-17.5-17.5h12.5 12.5v-8.5-8.5h-12.5-12.5v-16.5-16.5h16 16.1l-0.3-8.8-0.3-8.7-25.1-0.3c-13.8-0.1-25.3 0.1-25.7 0.4z"/>
		<path class="s0" d="m29 185v17h236.5 236.5v-17-17h-236.5-236.5z"/>
		<path class="s0" d="m69.6 263.2c0.4 31 0.9 90.3 1.3 131.8l0.6 75.5 8.1 0.3 8.2 0.3 0.6-4.3c1-7 28.6-255.7 28.6-257.8 0-1.9-0.9-2-24-2h-24z"/>
		<path class="s0" d="m413.6 211.7c0.4 2.7 7 61.9 14.8 131.8l14.2 127 8 0.3 8.1 0.3 0.6-38.8c0.4-21.3 1-80.8 1.3-132.1l0.7-93.2h-24.1-24.1z"/>
		<path class="s0" d="m133.1 227.7c-4.6 2.3-7.1 6.7-7.1 12.6 0 6.8 3.2 9.8 14.2 13.1 4.7 1.5 9.3 3.5 10.2 4.4 2.2 2.6 2.1 8.5-0.3 10.6-4.7 4.3-15.4 2.4-16.7-2.9-0.5-2.1-1.2-2.5-4.4-2.5-3.8 0-3.9 0-3 3.1 2 6.7 7.7 10.2 16.6 10.3 10 0 16.4-5.4 16.4-13.9 0-4.7-2.4-9.1-5.8-10.8-1.5-0.8-5.8-2.4-9.7-3.7-8.6-2.8-10.5-4.3-10.5-8.7 0-4.8 2.9-7.3 8.6-7.3 4 0 5.1 0.5 8 3.5 2.4 2.6 4.1 3.5 6.4 3.5 2.8 0 3.1-0.3 2.5-2.3-1.1-3.7-4-7.1-7.6-8.9-4.3-2.3-13.3-2.3-17.8-0.1z"/>
		<path class="s0" d="m181 227.6c-14.7 6.4-19.7 26.5-9.7 39.6 9.1 11.8 29.4 12.3 38.8 0.8 3.9-4.7 3.8-7-0.3-7-2.4 0-3.9 0.9-6.4 3.9-5.9 6.8-16.6 7.7-23.9 1.9-6.3-4.9-8.4-17.2-4.4-25.5 5.2-10.7 22.2-12.7 28.8-3.4 1.9 2.6 2.9 3.1 6.2 3.1h4l-1.5-2.8c-2.1-3.9-7.5-8.9-11.8-10.6-4.7-2-15.2-2-19.8 0z"/>
		<path class="s0" d="m223.7 226.7c-0.4 0.3-0.7 11.6-0.7 25v24.3h3.5 3.5v-11-11h12.5 12.5v11 11h3.5 3.5l-0.2-24.8-0.3-24.7-3.2-0.3-3.3-0.3v11 11.1h-12.5-12.5v-11-11h-2.8c-1.6 0-3.2 0.3-3.5 0.7z"/>
		<path class="s0" d="m286.5 227.1c-4.8 1.3-11.5 7.8-14.1 13.3-8 17.1 3.9 36 22.6 36 15.3 0 26.5-12.9 24.7-28.4-1.1-9.5-8.2-18.3-16.6-20.8-4.4-1.4-12.2-1.4-16.6-0.1zm15.8 6.3c4.1 1.7 8.1 6.4 9.7 11.2 1.7 4.9 0.7 13.6-2 17.9-7.5 12.2-26.4 10.4-31.6-3-2.3-6.2-1.6-15.1 1.6-19.8 4.8-7 14.3-9.7 22.3-6.3z"/>
		<path class="s0" d="m342.5 227.1c-4.8 1.3-11.5 7.8-14.1 13.3-8 17.1 3.9 36 22.6 36 15.3 0 26.5-12.9 24.7-28.4-1.1-9.5-8.2-18.3-16.6-20.8-4.4-1.4-12.2-1.4-16.6-0.1zm15.8 6.3c4.1 1.7 8.1 6.4 9.7 11.2 1.7 4.9 0.7 13.6-2 17.9-7.5 12.2-26.4 10.4-31.6-3-2.3-6.2-1.6-15.1 1.6-19.8 4.8-7 14.3-9.7 22.3-6.3z"/>
		<path class="s0" d="m384 251v25h12 12v-2.5c0-2.5-0.1-2.5-8.5-2.5h-8.5v-22.5-22.5h-3.5-3.5z"/>
	</g>
</svg>